<mxfile host="app.diagrams.net" agent="Mozilla/5.0 (Windows NT 10.0; Win64; x64) AppleWebKit/537.36 (KHTML, like Gecko) Chrome/135.0.0.0 Safari/537.36 Edg/135.0.0.0" version="26.2.12">
  <diagram id="C5RBs43oDa-KdzZeNtuy" name="Page-1">
    <mxGraphModel dx="1235" dy="680" grid="1" gridSize="10" guides="1" tooltips="1" connect="1" arrows="1" fold="1" page="1" pageScale="1" pageWidth="827" pageHeight="1169" math="0" shadow="0">
      <root>
        <mxCell id="WIyWlLk6GJQsqaUBKTNV-0" />
        <mxCell id="WIyWlLk6GJQsqaUBKTNV-1" parent="WIyWlLk6GJQsqaUBKTNV-0" />
        <mxCell id="cTEr3M9oa_GZLNp3u85K-3" style="edgeStyle=orthogonalEdgeStyle;rounded=0;orthogonalLoop=1;jettySize=auto;html=1;" edge="1" parent="WIyWlLk6GJQsqaUBKTNV-1" source="cTEr3M9oa_GZLNp3u85K-0" target="cTEr3M9oa_GZLNp3u85K-2">
          <mxGeometry relative="1" as="geometry" />
        </mxCell>
        <mxCell id="cTEr3M9oa_GZLNp3u85K-0" value="输入路径" style="rounded=0;whiteSpace=wrap;html=1;" vertex="1" parent="WIyWlLk6GJQsqaUBKTNV-1">
          <mxGeometry x="362.5" width="120" height="60" as="geometry" />
        </mxCell>
        <mxCell id="cTEr3M9oa_GZLNp3u85K-26" style="edgeStyle=orthogonalEdgeStyle;rounded=0;orthogonalLoop=1;jettySize=auto;html=1;entryX=1;entryY=0.5;entryDx=0;entryDy=0;dashed=1;" edge="1" parent="WIyWlLk6GJQsqaUBKTNV-1" source="cTEr3M9oa_GZLNp3u85K-2" target="cTEr3M9oa_GZLNp3u85K-19">
          <mxGeometry relative="1" as="geometry">
            <mxPoint x="550" y="550" as="targetPoint" />
            <Array as="points">
              <mxPoint x="540" y="130" />
              <mxPoint x="540" y="590" />
            </Array>
          </mxGeometry>
        </mxCell>
        <mxCell id="cTEr3M9oa_GZLNp3u85K-30" style="edgeStyle=orthogonalEdgeStyle;rounded=0;orthogonalLoop=1;jettySize=auto;html=1;" edge="1" parent="WIyWlLk6GJQsqaUBKTNV-1" source="cTEr3M9oa_GZLNp3u85K-2" target="cTEr3M9oa_GZLNp3u85K-28">
          <mxGeometry relative="1" as="geometry" />
        </mxCell>
        <mxCell id="cTEr3M9oa_GZLNp3u85K-2" value="判断是否为目录" style="rhombus;whiteSpace=wrap;html=1;" vertex="1" parent="WIyWlLk6GJQsqaUBKTNV-1">
          <mxGeometry x="365" y="90" width="115" height="80" as="geometry" />
        </mxCell>
        <mxCell id="cTEr3M9oa_GZLNp3u85K-20" style="edgeStyle=orthogonalEdgeStyle;rounded=0;orthogonalLoop=1;jettySize=auto;html=1;" edge="1" parent="WIyWlLk6GJQsqaUBKTNV-1" source="cTEr3M9oa_GZLNp3u85K-13" target="cTEr3M9oa_GZLNp3u85K-19">
          <mxGeometry relative="1" as="geometry" />
        </mxCell>
        <mxCell id="cTEr3M9oa_GZLNp3u85K-13" value="获取当前目录所有文件" style="whiteSpace=wrap;html=1;rounded=0;" vertex="1" parent="WIyWlLk6GJQsqaUBKTNV-1">
          <mxGeometry x="370" y="450" width="120" height="60" as="geometry" />
        </mxCell>
        <mxCell id="cTEr3M9oa_GZLNp3u85K-19" value="返回收集的文件" style="rounded=1;whiteSpace=wrap;html=1;" vertex="1" parent="WIyWlLk6GJQsqaUBKTNV-1">
          <mxGeometry x="370" y="560" width="120" height="60" as="geometry" />
        </mxCell>
        <mxCell id="cTEr3M9oa_GZLNp3u85K-36" style="edgeStyle=orthogonalEdgeStyle;rounded=0;orthogonalLoop=1;jettySize=auto;html=1;dashed=1;" edge="1" parent="WIyWlLk6GJQsqaUBKTNV-1" source="cTEr3M9oa_GZLNp3u85K-28" target="cTEr3M9oa_GZLNp3u85K-37">
          <mxGeometry relative="1" as="geometry">
            <mxPoint x="300" y="250" as="targetPoint" />
          </mxGeometry>
        </mxCell>
        <mxCell id="cTEr3M9oa_GZLNp3u85K-41" value="" style="edgeStyle=orthogonalEdgeStyle;rounded=0;orthogonalLoop=1;jettySize=auto;html=1;" edge="1" parent="WIyWlLk6GJQsqaUBKTNV-1" source="cTEr3M9oa_GZLNp3u85K-28" target="cTEr3M9oa_GZLNp3u85K-40">
          <mxGeometry relative="1" as="geometry" />
        </mxCell>
        <mxCell id="cTEr3M9oa_GZLNp3u85K-28" value="判断目录是否同时包含目录和文件" style="rhombus;whiteSpace=wrap;html=1;direction=west;" vertex="1" parent="WIyWlLk6GJQsqaUBKTNV-1">
          <mxGeometry x="382.5" y="210" width="80" height="80" as="geometry" />
        </mxCell>
        <mxCell id="cTEr3M9oa_GZLNp3u85K-37" value="返回空" style="rounded=1;whiteSpace=wrap;html=1;" vertex="1" parent="WIyWlLk6GJQsqaUBKTNV-1">
          <mxGeometry x="200" y="220" width="120" height="60" as="geometry" />
        </mxCell>
        <mxCell id="cTEr3M9oa_GZLNp3u85K-43" style="edgeStyle=orthogonalEdgeStyle;rounded=0;orthogonalLoop=1;jettySize=auto;html=1;dashed=1;" edge="1" parent="WIyWlLk6GJQsqaUBKTNV-1" source="cTEr3M9oa_GZLNp3u85K-40" target="cTEr3M9oa_GZLNp3u85K-44">
          <mxGeometry relative="1" as="geometry">
            <mxPoint x="320" y="350" as="targetPoint" />
          </mxGeometry>
        </mxCell>
        <mxCell id="cTEr3M9oa_GZLNp3u85K-40" value="判断是否只包含文件" style="rhombus;whiteSpace=wrap;html=1;" vertex="1" parent="WIyWlLk6GJQsqaUBKTNV-1">
          <mxGeometry x="382.5" y="310" width="80" height="80" as="geometry" />
        </mxCell>
        <mxCell id="cTEr3M9oa_GZLNp3u85K-42" style="edgeStyle=orthogonalEdgeStyle;rounded=0;orthogonalLoop=1;jettySize=auto;html=1;exitX=0.5;exitY=1;exitDx=0;exitDy=0;entryX=0.434;entryY=0.007;entryDx=0;entryDy=0;entryPerimeter=0;" edge="1" parent="WIyWlLk6GJQsqaUBKTNV-1" source="cTEr3M9oa_GZLNp3u85K-40" target="cTEr3M9oa_GZLNp3u85K-13">
          <mxGeometry relative="1" as="geometry" />
        </mxCell>
        <mxCell id="cTEr3M9oa_GZLNp3u85K-44" value="收集所有目录" style="rounded=0;whiteSpace=wrap;html=1;" vertex="1" parent="WIyWlLk6GJQsqaUBKTNV-1">
          <mxGeometry x="210" y="320" width="120" height="60" as="geometry" />
        </mxCell>
        <mxCell id="cTEr3M9oa_GZLNp3u85K-45" style="edgeStyle=orthogonalEdgeStyle;rounded=0;orthogonalLoop=1;jettySize=auto;html=1;entryX=-0.001;entryY=0.368;entryDx=0;entryDy=0;entryPerimeter=0;" edge="1" parent="WIyWlLk6GJQsqaUBKTNV-1" source="cTEr3M9oa_GZLNp3u85K-44" target="cTEr3M9oa_GZLNp3u85K-0">
          <mxGeometry relative="1" as="geometry">
            <Array as="points">
              <mxPoint x="150" y="350" />
              <mxPoint x="150" y="22" />
            </Array>
          </mxGeometry>
        </mxCell>
      </root>
    </mxGraphModel>
  </diagram>
</mxfile>
